<svg xmlns="http://www.w3.org/2000/svg" width="1200" height="750" viewBox="0 0 1200 750">
  <rect width="1200" height="750" fill="#f1f5f9"/>
  <rect x="32" y="24" width="1136" height="44" rx="8" fill="#e2e8f0"/>
  <circle cx="52" cy="46" r="6" fill="#f87171"/>
  <circle cx="72" cy="46" r="6" fill="#fbbf24"/>
  <circle cx="92" cy="46" r="6" fill="#34d399"/>
  <rect x="140" y="36" width="120" height="20" rx="4" fill="#cbd5e1"/>
  <rect x="280" y="36" width="80" height="20" rx="4" fill="#2563eb" opacity="0.3"/>
  <!-- Sidebar -->
  <rect x="32" y="80" width="200" height="646" rx="8" fill="#e2e8f0"/>
  <rect x="52" y="100" width="160" height="14" rx="4" fill="#cbd5e1"/>
  <rect x="52" y="130" width="140" height="14" rx="4" fill="#93c5fd"/>
  <rect x="52" y="160" width="150" height="14" rx="4" fill="#cbd5e1"/>
  <rect x="52" y="190" width="130" height="14" rx="4" fill="#cbd5e1"/>
  <!-- Main content area -->
  <!-- Header metric cards -->
  <rect x="256" y="90" width="260" height="100" rx="12" fill="white" stroke="#e2e8f0" stroke-width="1"/>
  <rect x="280" y="108" width="60" height="8" rx="4" fill="#94a3b8"/>
  <rect x="280" y="126" width="120" height="28" rx="4" fill="#2563eb" opacity="0.15"/>
  <rect x="540" y="90" width="260" height="100" rx="12" fill="white" stroke="#e2e8f0" stroke-width="1"/>
  <rect x="564" y="108" width="60" height="8" rx="4" fill="#94a3b8"/>
  <rect x="564" y="126" width="100" height="28" rx="4" fill="#059669" opacity="0.15"/>
  <rect x="824" y="90" width="260" height="100" rx="12" fill="white" stroke="#e2e8f0" stroke-width="1"/>
  <rect x="848" y="108" width="60" height="8" rx="4" fill="#94a3b8"/>
  <rect x="848" y="126" width="80" height="28" rx="4" fill="#d97706" opacity="0.15"/>
  <!-- Chart area -->
  <rect x="256" y="210" width="540" height="240" rx="12" fill="white" stroke="#e2e8f0" stroke-width="1"/>
  <rect x="280" y="230" width="100" height="8" rx="4" fill="#94a3b8"/>
  <!-- Fake chart bars -->
  <rect x="290" y="370" width="28" height="60" rx="3" fill="#2563eb" opacity="0.3"/>
  <rect x="330" y="340" width="28" height="90" rx="3" fill="#2563eb" opacity="0.4"/>
  <rect x="370" y="310" width="28" height="120" rx="3" fill="#2563eb" opacity="0.5"/>
  <rect x="410" y="280" width="28" height="150" rx="3" fill="#2563eb" opacity="0.6"/>
  <rect x="450" y="300" width="28" height="130" rx="3" fill="#2563eb" opacity="0.5"/>
  <rect x="490" y="350" width="28" height="80" rx="3" fill="#2563eb" opacity="0.3"/>
  <rect x="530" y="320" width="28" height="110" rx="3" fill="#2563eb" opacity="0.4"/>
  <rect x="570" y="290" width="28" height="140" rx="3" fill="#2563eb" opacity="0.55"/>
  <rect x="610" y="360" width="28" height="70" rx="3" fill="#2563eb" opacity="0.3"/>
  <rect x="650" y="330" width="28" height="100" rx="3" fill="#2563eb" opacity="0.4"/>
  <rect x="690" y="300" width="28" height="130" rx="3" fill="#2563eb" opacity="0.5"/>
  <rect x="730" y="270" width="28" height="160" rx="3" fill="#2563eb" opacity="0.6"/>
  <rect x="770" y="310" width="28" height="120" rx="3" fill="#2563eb" opacity="0.45"/>
  <!-- Recent activity list -->
  <rect x="256" y="470" width="540" height="240" rx="12" fill="white" stroke="#e2e8f0" stroke-width="1"/>
  <rect x="280" y="490" width="120" height="8" rx="4" fill="#94a3b8"/>
  <rect x="280" y="516" width="480" height="16" rx="4" fill="#f1f5f9"/>
  <rect x="280" y="544" width="480" height="16" rx="4" fill="#f8fafc"/>
  <rect x="280" y="572" width="480" height="16" rx="4" fill="#f1f5f9"/>
  <rect x="280" y="600" width="480" height="16" rx="4" fill="#f8fafc"/>
  <rect x="280" y="628" width="480" height="16" rx="4" fill="#f1f5f9"/>
  <!-- Right sidebar -->
  <rect x="820" y="210" width="264" height="500" rx="12" fill="white" stroke="#e2e8f0" stroke-width="1"/>
  <rect x="844" y="230" width="100" height="8" rx="4" fill="#94a3b8"/>
  <circle cx="864" cy="280" r="20" fill="#2563eb" opacity="0.1"/>
  <circle cx="904" cy="280" r="20" fill="#059669" opacity="0.1"/>
  <circle cx="944" cy="280" r="20" fill="#d97706" opacity="0.1"/>
  <rect x="844" y="320" width="220" height="60" rx="8" fill="#f1f5f9"/>
  <rect x="844" y="396" width="220" height="60" rx="8" fill="#f1f5f9"/>
  <rect x="844" y="472" width="220" height="60" rx="8" fill="#f1f5f9"/>
  <!-- Overlay text -->
  <rect x="0" y="0" width="1200" height="750" fill="white" opacity="0"/>
  <rect x="340" y="340" width="520" height="70" rx="16" fill="#0b0f1a" opacity="0.85"/>
  <text x="600" y="370" text-anchor="middle" font-family="system-ui,sans-serif" font-size="16" font-weight="600" fill="white">VENDREX DASHBOARD</text>
  <text x="600" y="394" text-anchor="middle" font-family="system-ui,sans-serif" font-size="12" fill="#94a3b8">Replace with public/images/screenshots/vendrex-dashboard.png</text>
</svg>
